HIERARCHY
ROOT hip
{
	OFFSET 0.000000 0.000000 0.000000
	CHANNELS 6 Xposition Yposition Zposition Xrotation Zrotation Yrotation 
	JOINT abdomen
	{
		OFFSET 0.000000 3.422050 0.000000
		CHANNELS 3 Xrotation Zrotation Yrotation 
		JOINT chest
		{
			OFFSET 0.000000 8.486693 -0.684411
			CHANNELS 3 Xrotation Zrotation Yrotation 
			JOINT neck
			{
				OFFSET 0.000000 10.266162 -0.273764
				CHANNELS 3 Xrotation Zrotation Yrotation 
				JOINT head
				{
					OFFSET 0.000000 3.148285 0.000000
					CHANNELS 3 Xrotation Zrotation Yrotation 
					End Site
					{
						OFFSET 0.000000 3.148289 0.000000
					}
				}
			}
			JOINT lCollar
			{
				OFFSET 3.422053 6.707223 -0.821293
				CHANNELS 3 Yrotation Zrotation Xrotation 
				JOINT lShldr
				{
					OFFSET 3.285171 0.000000 0.000000
					CHANNELS 3 Zrotation Yrotation Xrotation 
					JOINT lForeArm
					{
						OFFSET 10.129278 0.000000 0.000000
						CHANNELS 3 Yrotation Zrotation Xrotation 
						JOINT lHand
						{
							OFFSET 8.486692 0.000000 0.000000
							CHANNELS 3 Zrotation Yrotation Xrotation 
							End Site
							{
								OFFSET 4.106464 0.000000 0.000000
							}
						}
					}
				}
			}
			JOINT rCollar
			{
				OFFSET -3.558935 6.707223 -0.821293
				CHANNELS 3 Yrotation Zrotation Xrotation 
				JOINT rShldr
				{
					OFFSET -3.148289 0.000000 0.000000
					CHANNELS 3 Zrotation Yrotation Xrotation 
					JOINT rForeArm
					{
						OFFSET -10.266159 0.000000 0.000000
						CHANNELS 3 Yrotation Zrotation Xrotation 
						JOINT rHand
						{
							OFFSET -8.349810 0.000000 0.000000
							CHANNELS 3 Zrotation Yrotation Xrotation 
							End Site
							{
								OFFSET -4.106464 0.000000 0.000000
							}
						}
					}
				}
			}
		}
	}
	JOINT lThigh
	{
		OFFSET 5.338403 -1.642589 1.368821
		CHANNELS 3 Xrotation Zrotation Yrotation 
		JOINT lShin
		{
			OFFSET -2.053232 -20.121670 0.000000
			CHANNELS 3 Xrotation Zrotation Yrotation 
			JOINT lFoot
			{
				OFFSET 0.000000 -19.300380 -1.231939
				CHANNELS 3 Xrotation Yrotation Zrotation 
				End Site
				{
					OFFSET 0.000000 -2.463878 4.653993
				}
			}
		}
	}
	JOINT rThigh
	{
		OFFSET -5.338403 -1.642589 1.368821
		CHANNELS 3 Xrotation Zrotation Yrotation 
		JOINT rShin
		{
			OFFSET 2.053232 -20.121670 0.000000
			CHANNELS 3 Xrotation Zrotation Yrotation 
			JOINT rFoot
			{
				OFFSET 0.000000 -19.300380 -1.231939
				CHANNELS 3 Xrotation Yrotation Zrotation 
				End Site
				{
					OFFSET 0.000000 -2.463878 4.653993
				}
			}
		}
	}
}
MOTION
Frames: 14
Frame Time: 0.049897
0.000000 17.320885 0.000000 -89.996941 0.254758 -179.732864 -9.817550 -2.061341 -1.418543 -28.685194 -5.839724 0.910703 18.670115 -18.276577 1.178323 -11.066011 -8.392181 -0.362158 15.738402 -37.982742 -1.865931 -33.299316 -8.429741 29.843430 -107.025406 4.669516 26.808029 41.598114 3.884338 -16.809803 21.998129 16.999308 -3.001710 53.337467 23.526758 -8.419857 80.850449 -2.076262 17.097254 -44.893066 -5.001929 -37.999954 -124.947449 22.673622 1.938519 133.419571 11.515879 -51.539684 36.453365 11.661241 8.852071 -124.941879 -22.697578 -1.932154 133.446960 -11.535858 51.519962 44.097027 -10.151967 -6.126956 
0.000000 17.320885 0.000000 -89.996941 0.254758 -179.732864 -9.817550 -2.061341 -1.418543 -28.685194 -5.839724 0.910703 18.542236 -18.154388 1.190826 -11.515419 -8.540348 -0.334963 15.738402 -37.982742 -1.865930 -33.243217 -8.638624 29.835083 -106.761879 4.674717 27.033016 41.281040 3.960376 -17.043055 21.998129 16.999308 -3.001710 53.017410 23.659145 -8.242653 80.372520 -2.133151 16.991213 -44.694626 -5.001944 -37.999954 -124.947449 22.673622 1.938519 133.419571 11.515879 -51.539684 36.453365 11.661241 8.852071 -124.941879 -22.697577 -1.932154 133.446960 -11.535858 51.519962 44.097027 -10.151967 -6.126956 
0.000000 17.320885 0.000000 -89.996941 0.254758 -179.732864 -9.817550 -2.061341 -1.418543 -28.685194 -5.839724 0.910703 18.414442 -18.032143 1.203035 -11.964718 -8.688181 -0.306606 15.738402 -37.982742 -1.865930 -33.187031 -8.847589 29.826515 -106.498062 4.680956 27.258249 40.963188 4.035227 -17.277079 21.998129 16.999308 -3.001710 52.696892 23.792679 -8.065751 79.893372 -2.189281 16.884451 -44.496117 -5.001957 -37.999954 -124.947449 22.673622 1.938519 133.419571 11.515879 -51.539684 36.453365 11.661241 8.852071 -124.941879 -22.697577 -1.932154 133.446960 -11.535858 51.519962 44.097027 -10.151967 -6.126956 
0.000000 17.320885 0.000000 -89.996941 0.254758 -179.732864 -9.817550 -2.061341 -1.418543 -28.685194 -5.839724 0.910703 18.286743 -17.909853 1.214952 -12.413892 -8.835667 -0.277090 15.738402 -37.982742 -1.865930 -33.130756 -9.056631 29.817734 -106.233963 4.688239 27.483723 40.644566 4.108881 -17.511850 21.998129 16.999308 -3.001710 52.375923 23.927364 -7.889174 79.413040 -2.244639 16.776981 -44.297535 -5.001972 -37.999954 -124.947449 22.673622 1.938519 133.419571 11.515879 -51.539684 36.453365 11.661241 8.852071 -124.941879 -22.697577 -1.932154 133.446960 -11.535858 51.519962 44.097027 -10.151967 -6.126956 
0.000000 17.320885 0.000000 -89.996941 0.254758 -179.732864 -9.817550 -2.061341 -1.418543 -28.685194 -5.839724 0.910703 18.159130 -17.787504 1.226577 -12.862941 -8.982794 -0.246420 15.738402 -37.982742 -1.865930 -33.074390 -9.265749 29.808735 -105.969582 4.696566 27.709421 40.325199 4.181328 -17.747374 21.998129 16.999308 -3.001710 52.054504 24.063187 -7.712930 78.931503 -2.299215 16.668804 -44.098892 -5.001986 -37.999958 -124.947449 22.673622 1.938519 133.419571 11.515879 -51.539684 36.453365 11.661241 8.852071 -124.941879 -22.697577 -1.932154 133.446960 -11.535858 51.519962 44.097027 -10.151967 -6.126956 
0.000000 17.320885 0.000000 -89.996941 0.254758 -179.732864 -9.817550 -2.061341 -1.418543 -28.685194 -5.839724 0.910703 18.031607 -17.665115 1.237910 -13.311845 -9.129542 -0.214599 15.738402 -37.982742 -1.865930 -33.017952 -9.474946 29.799528 -105.704933 4.705944 27.935343 40.005074 4.252557 -17.983631 21.998129 16.999308 -3.001710 51.732647 24.200151 -7.537029 78.448799 -2.352999 16.559929 -43.900181 -5.002001 -37.999966 -124.947449 22.673622 1.938519 133.419571 11.515879 -51.539684 36.453365 11.661241 8.852071 -124.941879 -22.697577 -1.932154 133.446960 -11.535858 51.519962 44.097027 -10.151967 -6.126956 
0.000000 17.320885 0.000000 -89.996941 0.254758 -179.732864 -9.817550 -2.061341 -1.418543 -28.685194 -5.839724 0.910703 17.904167 -17.542671 1.248952 -13.760602 -9.275908 -0.181632 15.738402 -37.982742 -1.865930 -32.961395 -9.684211 29.790092 -105.440018 4.716371 28.161470 39.684208 4.322557 -18.220612 21.998129 16.999308 -3.001710 51.410339 24.338243 -7.361491 77.964928 -2.405977 16.450365 -43.701405 -5.002014 -37.999962 -124.947449 22.673622 1.938519 133.419571 11.515879 -51.539684 36.453365 11.661241 8.852071 -124.941879 -22.697577 -1.932154 133.446960 -11.535858 51.519962 44.097027 -10.151967 -6.126956 
0.000000 17.320885 0.000000 -89.996941 0.254758 -179.732864 -9.817550 -2.061341 -1.418543 -28.685194 -5.839724 0.910703 17.776810 -17.420183 1.259704 -14.209200 -9.421873 -0.147524 15.738402 -37.982742 -1.865930 -32.904766 -9.893552 29.780441 -105.174858 4.727855 28.387806 39.362614 4.391319 -18.458307 21.998129 16.999308 -3.001710 51.087631 24.477482 -7.186323 77.479927 -2.458135 16.340120 -43.502563 -5.002030 -37.999977 -124.947449 22.673622 1.938519 133.419571 11.515879 -51.539684 36.453365 11.661241 8.852071 -124.941879 -22.697577 -1.932154 133.446960 -11.535858 51.519962 44.097027 -10.151967 -6.126956 
0.000000 17.320885 0.000000 -89.996941 0.254758 -179.732864 -9.817550 -2.061341 -1.418543 -28.685194 -5.839724 0.910703 17.649546 -17.297653 1.270164 -14.657629 -9.567424 -0.112279 15.738402 -37.982742 -1.865930 -32.848042 -10.102959 29.770573 -104.909439 4.740397 28.614330 39.040302 4.458833 -18.696705 21.998129 16.999308 -3.001710 50.764488 24.617844 -7.011535 76.993774 -2.509466 16.229198 -43.303650 -5.002043 -37.999969 -124.947449 22.673622 1.938519 133.419571 11.515879 -51.539684 36.453365 11.661241 8.852071 -124.941879 -22.697577 -1.932154 133.446960 -11.535858 51.519962 44.097027 -10.151967 -6.126956 
0.000000 17.320885 0.000000 -89.996941 0.254758 -179.732864 -9.817550 -2.061341 -1.418543 -28.685194 -5.839724 0.910703 17.522362 -17.175074 1.280334 -15.105881 -9.712550 -0.075903 15.738402 -37.982742 -1.865930 -32.791214 -10.312437 29.760477 -104.643791 4.754002 28.841045 38.717293 4.525090 -18.935801 21.998129 16.999308 -3.001710 50.440926 24.759325 -6.837142 76.506531 -2.559958 16.117615 -43.104687 -5.002058 -37.999977 -124.947449 22.673622 1.938519 133.419571 11.515879 -51.539684 36.453365 11.661241 8.852071 -124.941879 -22.697577 -1.932154 133.446960 -11.535858 51.519962 44.097027 -10.151967 -6.126956 
0.000000 17.320885 0.000000 -89.996941 0.254758 -179.732864 -9.817550 -2.061341 -1.418543 -28.685194 -5.839724 0.910703 17.395264 -17.052454 1.290216 -15.553946 -9.857239 -0.038400 15.738402 -37.982742 -1.865930 -32.734291 -10.521979 29.750156 -104.377914 4.768667 29.067930 38.393581 4.590078 -19.175577 21.998129 16.999308 -3.001710 50.116943 24.901922 -6.663157 76.018181 -2.609598 16.005377 -42.905663 -5.002074 -37.999989 -124.947449 22.673622 1.938519 133.419571 11.515879 -51.539684 36.453365 11.661241 8.852071 -124.941879 -22.697577 -1.932154 133.446960 -11.535858 51.519962 44.097027 -10.151967 -6.126956 
0.000000 17.320885 0.000000 -89.996941 0.254758 -179.732864 -9.817550 -2.061341 -1.418543 -28.685194 -5.839724 0.910703 17.268250 -16.929796 1.299808 -16.001814 -10.001473 0.000225 15.738402 -37.982742 -1.865930 -32.677277 -10.731590 29.739620 -104.111816 4.784396 29.294975 38.069187 4.653788 -19.416025 21.998129 16.999308 -3.001710 49.792583 25.045649 -6.489594 75.528732 -2.658375 15.892485 -42.706566 -5.002086 -37.999985 -124.947449 22.673622 1.938519 133.419571 11.515879 -51.539684 36.453365 11.661241 8.852071 -124.941879 -22.697577 -1.932154 133.446960 -11.535858 51.519962 44.097027 -10.151967 -6.126956 
0.000000 17.320885 0.000000 -89.996941 0.254758 -179.732864 -9.817550 -2.061341 -1.418543 -28.685194 -5.839724 0.910703 17.141314 -16.807089 1.309111 -15.885509 -9.930298 -0.009881 15.738402 -37.982742 -1.865931 -32.620148 -10.941258 29.728853 -103.845512 4.801193 29.522188 37.744125 4.716213 -19.657137 21.998129 16.999308 -3.001710 49.467804 25.190470 -6.316463 75.038239 -2.706280 15.778961 -42.507420 -5.002100 -37.999989 -124.947449 22.673622 1.938519 133.419571 11.515879 -51.539684 36.453365 11.661241 8.852071 -124.941879 -22.697577 -1.932154 133.446960 -11.535858 51.519962 44.097027 -10.151967 -6.126956 
0.000000 17.320885 0.000000 -89.996941 0.254758 -179.732864 -9.817550 -2.061341 -1.418543 -28.685194 -5.839724 0.910703 17.014463 -16.684349 1.318125 -15.769215 -9.859085 -0.019840 15.738402 -37.982742 -1.865930 -32.562943 -11.150994 29.717876 -103.579018 4.819067 29.749556 37.418392 4.777342 -19.898895 21.998129 16.999308 -3.001710 49.142647 25.336409 -6.143778 74.546707 -2.753300 15.664810 -42.308212 -5.002116 -37.999992 -124.947449 22.673622 1.938519 133.419571 11.515879 -51.539684 36.453365 11.661241 8.852071 -124.941879 -22.697577 -1.932154 133.446960 -11.535858 51.519962 44.097027 -10.151967 -6.126956 
